Coordinates
version=1
nRows=16
nColumns=63
inDegrees=yes

Units are S.I. units (second, meters, Newtons, ...)
If the header above contains a line with 'inDegrees', this indicates whether rotational values are in degrees (yes) or radians (no).

endheader
time	pelvis_tilt	pelvis_list	pelvis_rotation	pelvis_tx	pelvis_ty	pelvis_tz	hip_flexion_r	hip_adduction_r	hip_rotation_r	knee_angle_r	knee_angle_r_beta	ankle_angle_r	subtalar_angle_r	mtp_angle_r	hip_flexion_l	hip_adduction_l	hip_rotation_l	knee_angle_l	knee_angle_l_beta	ankle_angle_l	subtalar_angle_l	mtp_angle_l	L5_S1_Flex_Ext	L5_S1_Lat_Bending	L5_S1_axial_rotation	L4_L5_Flex_Ext	L4_L5_Lat_Bending	L4_L5_axial_rotation	L3_L4_Flex_Ext	L3_L4_Lat_Bending	L3_L4_axial_rotation	L2_L3_Flex_Ext	L2_L3_Lat_Bending	L2_L3_axial_rotation	L1_L2_Flex_Ext	L1_L2_Lat_Bending	L1_L2_axial_rotation	L1_T12_Flex_Ext	L1_T12_Lat_Bending	L1_T12_axial_rotation	Abs_r3	Abs_r2	Abs_r1	Abs_t1	Abs_t2	neck_flexion	neck_bending	neck_rotation	arm_flex_r	arm_add_r	arm_rot_r	elbow_flex_r	pro_sup_r	wrist_flex_r	wrist_dev_r	arm_flex_l	arm_add_l	arm_rot_l	elbow_flex_l	pro_sup_l	wrist_flex_l	wrist_dev_l
5.448276	-6.830874	0.322419	89.229242	0.221705	0.809335	0.668483	-2.562476	-7.210288	-11.120776	5.908623	0.103125	15.079641	13.711712	0.000000	-0.480188	4.261901	-0.576859	5.746957	0.100303	5.526694	5.232610	0.000000	-0.266579	-0.980548	1.495082	-0.495064	-1.304129	1.588525	-0.437963	-2.384104	1.588525	-0.304673	-2.384104	1.308197	-0.247545	-1.999533	1.214754	-0.152323	-1.518869	1.121312	-1.904149	-11.092154	8.315200	0.000000	0.000000	12.370037	-12.313155	-1.132378	13.949417	-19.292020	7.411197	130.811411	89.291523	-3.464940	11.272493	76.869596	-24.468239	17.390219	132.012214	85.725428	-3.798154	26.508393
5.465517	-7.004226	0.192372	89.672557	0.222080	0.809183	0.667870	-2.631011	-7.296872	-11.454745	5.752192	0.100395	15.213238	13.528737	0.000000	-0.381386	4.376642	-0.120039	5.805739	0.101329	5.311207	5.170700	0.000000	-0.295247	-1.020377	1.464723	-0.548302	-1.357102	1.556268	-0.485061	-2.480945	1.556268	-0.337437	-2.480945	1.281632	-0.274166	-2.080753	1.190087	-0.168704	-1.580565	1.098542	-2.108917	-11.542713	8.146348	0.000000	0.000000	12.252347	-13.022806	-1.087846	13.934478	-18.931516	8.443809	130.976775	88.693696	-3.771063	13.552238	82.979282	-24.524879	21.716462	129.061832	84.919194	-3.962568	27.990467
5.482759	-7.209715	0.009429	90.077880	0.222448	0.808694	0.667293	-2.630621	-7.424365	-11.819362	5.622993	0.098140	15.367046	13.427736	0.000000	-0.216077	4.537771	0.407052	5.868366	0.102422	5.144729	4.899088	0.000000	-0.319424	-1.063380	1.445411	-0.593203	-1.414296	1.535749	-0.524782	-2.585503	1.535749	-0.365070	-2.585503	1.264734	-0.296617	-2.168445	1.174396	-0.182519	-1.647176	1.084058	-2.281615	-12.029170	8.038941	0.000000	0.000000	12.135838	-13.752579	-1.120778	13.421739	-18.548557	9.515870	130.933587	88.692559	-4.267784	14.769666	88.721588	-24.558464	25.951467	126.239134	84.312384	-4.692491	28.778038
5.500000	-7.432296	-0.223053	90.426630	0.222804	0.807874	0.666806	-2.550949	-7.581615	-12.209145	5.532668	0.096563	15.540111	13.430895	0.000000	0.025077	4.724497	0.874957	5.951007	0.103865	5.088427	4.609221	0.000000	-0.336963	-1.106964	1.444659	-0.625774	-1.472262	1.534950	-0.553597	-2.691473	1.534950	-0.385115	-2.691473	1.264076	-0.312904	-2.257321	1.173785	-0.192541	-1.714688	1.083494	-2.406893	-12.522201	8.034758	0.000000	0.000000	11.996680	-14.355565	-1.026560	12.457900	-18.175808	10.620355	130.714369	88.908522	-5.112379	14.999248	93.996450	-24.470183	29.770375	123.632398	83.934568	-5.644567	29.145443
5.517241	-7.664234	-0.480785	90.707785	0.223177	0.806773	0.666431	-2.414436	-7.759865	-12.596656	5.475895	0.095572	15.729483	13.531121	0.000000	0.308388	4.930063	1.308384	6.035430	0.105338	5.134128	4.267101	0.000000	-0.348964	-1.149485	1.454328	-0.648061	-1.528816	1.545224	-0.573313	-2.794859	1.545224	-0.398831	-2.794859	1.272537	-0.324048	-2.344031	1.181642	-0.199398	-1.780553	1.090746	-2.492615	-13.003209	8.088538	0.000000	0.000000	11.824363	-14.752564	-0.623675	11.192610	-17.821081	11.799016	130.288559	88.967982	-6.264065	14.258381	98.832348	-24.328741	33.092056	121.367090	83.866097	-6.715886	29.409256
5.534483	-7.888372	-0.754294	90.891095	0.223564	0.805459	0.666193	-2.217398	-7.945012	-12.913342	5.458570	0.095270	15.920955	13.692648	0.000000	0.628112	5.131556	1.587928	6.133580	0.107051	5.300042	4.021067	0.000000	-0.354495	-1.186809	1.470728	-0.658332	-1.578456	1.562648	-0.582399	-2.885608	1.562648	-0.405152	-2.885608	1.286887	-0.329184	-2.420141	1.194966	-0.202558	-1.838367	1.103046	-2.532120	-13.425422	8.179746	0.000000	0.000000	11.600516	-14.960216	0.211793	9.784283	-17.488218	13.046252	129.648026	88.617590	-7.502202	12.737787	103.156056	-24.156685	35.669062	119.566769	83.865453	-7.658483	29.899974
5.551724	-8.097095	-1.036266	90.996865	0.223938	0.804009	0.666101	-1.975779	-8.132263	-13.197051	5.465947	0.095399	16.113939	13.944193	0.000000	0.969081	5.323422	1.739117	6.234264	0.108808	5.551244	3.862049	0.000000	-0.353009	-1.217518	1.479720	-0.655574	-1.619299	1.572202	-0.579959	-2.960274	1.572202	-0.403454	-2.960274	1.294755	-0.327804	-2.482763	1.202272	-0.201710	-1.885936	1.109790	-2.521510	-13.772809	8.229756	0.000000	0.000000	11.319865	-14.904196	1.546319	8.396458	-17.145201	14.370477	128.802315	88.020263	-8.796958	10.837983	106.922248	-24.029905	37.448737	118.312487	84.386340	-8.381172	30.765988
5.568966	-8.301998	-1.285792	90.994635	0.224365	0.802505	0.666178	-1.714259	-8.333445	-13.363267	5.508888	0.096148	16.337259	14.213195	0.000000	1.292064	5.517708	1.767533	6.347753	0.110789	5.864071	3.735923	0.000000	-0.349089	-1.244023	1.491853	-0.648294	-1.654551	1.585093	-0.573519	-3.024719	1.585093	-0.398974	-3.024719	1.305371	-0.324164	-2.536813	1.212130	-0.199470	-1.926992	1.118889	-2.493509	-14.072643	8.297236	0.000000	0.000000	10.946817	-14.620206	3.152499	7.127190	-16.770384	15.734211	127.765556	86.946889	-10.138344	8.799158	110.136057	-24.018367	38.547652	117.499767	84.663761	-9.133306	31.681411
5.586207	-8.490418	-1.538145	90.905179	0.224801	0.800954	0.666415	-1.396999	-8.532320	-13.421648	5.583621	0.097453	16.578795	14.465876	0.000000	1.629365	5.697617	1.695430	6.464130	0.112820	6.193885	3.651780	0.000000	-0.336990	-1.265319	1.509189	-0.625825	-1.682874	1.603513	-0.553641	-3.076495	1.603513	-0.385146	-3.076495	1.320540	-0.312929	-2.580238	1.226216	-0.192556	-1.959978	1.131892	-2.407089	-14.313536	8.393655	0.000000	0.000000	10.514033	-14.051926	4.915584	6.030415	-16.379537	17.080728	126.648441	85.427686	-11.608796	7.161880	112.771821	-24.110462	38.987036	117.091282	84.725208	-9.817883	32.655085
5.603448	-8.676858	-1.763038	90.728294	0.225290	0.799427	0.666828	-1.047837	-8.740473	-13.356752	5.697678	0.099443	16.866222	14.677372	0.000000	1.951555	5.875784	1.532608	6.586051	0.114948	6.510379	3.582381	0.000000	-0.321830	-1.283865	1.526991	-0.597671	-1.707541	1.622427	-0.528735	-3.121590	1.622427	-0.367820	-3.121590	1.336117	-0.298851	-2.618058	1.240680	-0.183894	-1.988707	1.145243	-2.298800	-14.523341	8.492664	0.000000	0.000000	10.074270	-13.227132	6.730160	5.221474	-15.963159	18.442097	125.420970	83.516265	-13.196536	5.918652	114.824075	-24.385911	38.803013	117.039196	84.513808	-10.438221	33.520743
5.620690	-8.845165	-1.959044	90.461950	0.225822	0.797953	0.667401	-0.667099	-8.937659	-13.148742	5.850241	0.102106	17.193026	14.832671	0.000000	2.254721	6.033790	1.294516	6.711898	0.117145	6.811957	3.513230	0.000000	-0.304588	-1.297602	1.548880	-0.565650	-1.725811	1.645685	-0.500407	-3.154990	1.645685	-0.348113	-3.154990	1.355270	-0.282840	-2.646071	1.258465	-0.174041	-2.009986	1.161660	-2.175639	-14.678736	8.614406	0.000000	0.000000	9.691150	-12.236084	8.505866	4.707619	-15.550627	19.773139	124.136958	81.358896	-14.849495	4.996189	116.293228	-24.860120	38.078696	117.293216	83.911256	-11.059148	34.159915
5.637931	-9.001195	-2.136429	90.158386	0.226334	0.796554	0.668078	-0.260912	-9.129265	-12.889602	6.042012	0.105453	17.559715	14.974221	0.000000	2.543931	6.178942	1.045749	6.834799	0.119290	7.081764	3.424522	0.000000	-0.285266	-1.308664	1.576624	-0.529767	-1.740523	1.675163	-0.468663	-3.181885	1.675163	-0.326030	-3.181885	1.379546	-0.264898	-2.668627	1.281007	-0.163001	-2.027120	1.182468	-2.037623	-14.803867	8.768710	0.000000	0.000000	9.415346	-11.096516	10.118410	4.400714	-15.170134	20.946589	122.888377	79.139265	-16.408680	4.303049	117.199246	-25.468899	36.956061	117.753072	83.246745	-11.732487	34.419314
5.655172	-9.125637	-2.301803	89.797460	0.226848	0.795239	0.668829	0.181457	-9.292449	-12.526774	6.279962	0.109606	17.940540	15.066345	0.000000	2.814423	6.292054	0.790477	6.935944	0.121055	7.326799	3.297284	0.000000	-0.264761	-1.314905	1.618285	-0.491687	-1.748824	1.719428	-0.434975	-3.197061	1.719428	-0.302595	-3.197061	1.416000	-0.245857	-2.681355	1.314857	-0.151284	-2.036788	1.213714	-1.891160	-14.874472	9.000418	0.000000	0.000000	9.360357	-9.934580	11.535519	4.234670	-14.836825	21.888067	121.742271	76.962873	-17.764230	3.656721	117.617574	-26.190881	35.580907	118.351455	82.321038	-12.602098	34.288918
5.672414	-9.216801	-2.454387	89.433759	0.227314	0.794042	0.669612	0.633068	-9.425458	-12.151789	6.552318	0.114360	18.319177	15.145254	0.000000	3.071160	6.371042	0.544733	7.033509	0.122758	7.562280	3.176979	0.000000	-0.245389	-1.317022	1.664801	-0.455712	-1.751640	1.768851	-0.403149	-3.202208	1.768851	-0.280455	-3.202208	1.456701	-0.227868	-2.685672	1.352651	-0.140215	-2.040067	1.248601	-1.752788	-14.898419	9.259125	0.000000	0.000000	9.574205	-8.811823	12.710090	4.154580	-14.537946	22.541712	120.744909	74.831011	-18.792062	3.097732	117.641492	-26.989650	34.018091	119.041503	81.407927	-13.450303	33.957442
5.689655	-9.274815	-2.602255	89.080970	0.227716	0.792972	0.670390	1.093733	-9.527400	-11.768566	6.858471	0.119703	18.677551	15.194814	0.000000	3.314734	6.416444	0.306407	7.115485	0.124189	7.779201	3.076072	0.000000	-0.228221	-1.315274	1.714520	-0.423829	-1.749315	1.821677	-0.374944	-3.197958	1.821677	-0.260834	-3.197958	1.500205	-0.211926	-2.682108	1.393047	-0.130406	-2.037360	1.285890	-1.630160	-14.878648	9.535643	0.000000	0.000000	10.113147	-7.860216	13.606893	4.093443	-14.264758	22.867520	119.933356	72.807512	-19.427182	2.608502	117.374729	-27.833094	32.330758	119.804517	80.485122	-14.212213	33.620874
5.706897	-9.285760	-2.749775	88.782670	0.228014	0.792037	0.671118	1.535452	-9.580226	-11.431236	7.164437	0.125043	18.985638	15.219466	0.000000	3.551950	6.415222	0.108586	7.193360	0.125548	7.985559	2.998348	0.000000	-0.213548	-1.308242	1.758106	-0.396580	-1.739962	1.867988	-0.350838	-3.180860	1.867988	-0.244064	-3.180860	1.538343	-0.198301	-2.667768	1.428462	-0.122021	-2.026467	1.318580	-1.525351	-14.799098	9.778061	0.000000	0.000000	10.949534	-7.169813	14.202392	4.000053	-14.009438	22.834131	119.337095	70.880199	-19.544525	2.335723	116.927037	-28.726278	30.620219	120.646836	79.635678	-14.923597	33.388247
